HIERARCHY
ROOT Hips
{
	OFFSET 0.000000 0.000000 0.000000
	CHANNELS 6 Xposition Yposition Zposition Zrotation Yrotation Xrotation 
	JOINT LHipJoint
	{
		OFFSET 0.000000 0.000000 0.000000
		CHANNELS 3 Zrotation Yrotation Xrotation
		JOINT LeftUpLeg
		{
			OFFSET 1.363060 -1.794630 0.839290
			CHANNELS 3 Zrotation Yrotation Xrotation
			JOINT LeftLeg
			{
				OFFSET 2.448110 -6.726130 0.000000
				CHANNELS 3 Zrotation Yrotation Xrotation
				JOINT LeftFoot
				{
					OFFSET 2.562200 -7.039590 0.000000
					CHANNELS 3 Zrotation Yrotation Xrotation
					JOINT LeftToeBase
					{
						OFFSET 0.157640 -0.433110 2.322550
						CHANNELS 3 Zrotation Yrotation Xrotation
						End Site
						{
							OFFSET 0.000000 0.000000 0.000000
						}
					}
				}
			}
		}
	}
	JOINT RHipJoint
	{
		OFFSET 0.000000 0.000000 0.000000
		CHANNELS 3 Zrotation Yrotation Xrotation
		JOINT RightUpLeg
		{
			OFFSET -1.305520 -1.794630 0.839290
			CHANNELS 3 Zrotation Yrotation Xrotation
			JOINT RightLeg
			{
				OFFSET -2.542530 -6.985550 0.000000
				CHANNELS 3 Zrotation Yrotation Xrotation
				JOINT RightFoot
				{
					OFFSET -2.568260 -7.056230 0.000000
					CHANNELS 3 Zrotation Yrotation Xrotation
					JOINT RightToeBase
					{
						OFFSET -0.164730 -0.452590 2.363150
						CHANNELS 3 Zrotation Yrotation Xrotation
						End Site
						{
							OFFSET 0.000000 0.000000 0.000000
						}
					}
				}
			}
		}
	}
}
MOTION
Frames: 22
Frame Time: 0.008333
3.226353 17.367333 -1.192764 165.423391 -82.159013 -156.716865 -11.058600 0.281765 1.303104 -1.440149 -1.575409 -27.993819 0.636003 1.801116 41.967727 3.687095 24.755474 13.061821 8.773800 0.000001 -59.123200 8.437599 -1.146692 1.799859 9.697316 5.795320 -7.773444 2.283408 0.710907 4.904874 -1.198443 -5.575330 -4.068627 -0.864900 0.000000 -49.900600
3.272717 17.366269 -1.223686 163.428396 -82.044239 -154.922051 -11.033802 0.021382 1.279995 -1.417434 -2.538154 -29.804345 0.787381 1.943861 45.457603 3.730034 24.888034 15.814309 9.762900 0.000000 -58.769900 8.506597 -1.074779 1.568693 9.479123 5.557910 -7.990925 2.241296 0.585217 5.801250 -1.184371 -5.362273 -4.363263 -0.794100 -0.000000 -50.116700
3.320190 17.363415 -1.252527 161.455850 -81.932573 -153.166660 -11.001126 -0.255001 1.233384 -1.418770 -3.383696 -31.670822 0.911546 2.078747 48.908036 3.759457 24.816970 18.538665 10.621800 0.000000 -57.869400 8.581345 -0.998034 1.330006 9.249108 5.304222 -8.192230 2.197882 0.459119 6.706888 -1.172248 -5.159389 -4.675480 -0.724300 -0.000000 -50.364100
3.368365 17.358901 -1.279419 159.495824 -81.825370 -151.431971 -10.959300 -0.543647 1.163375 -1.452286 -4.112451 -33.598719 1.011563 2.211482 52.308100 3.777343 24.567269 21.111502 11.304200 0.000000 -56.524500 8.661140 -0.917503 1.091132 9.006299 5.054123 -8.391484 2.151900 0.332445 7.630666 -1.165485 -4.983536 -5.009846 -0.656800 -0.000000 -50.624800
3.416897 17.352914 -1.304605 157.529108 -81.725680 -149.691062 -10.907474 -0.841268 1.071207 -1.524766 -4.730183 -35.596834 1.094808 2.347710 55.653103 3.785584 24.180432 23.427043 11.791500 0.000000 -54.920500 8.745716 -0.834106 0.859009 8.750141 4.825726 -8.603316 2.102024 0.205001 8.580479 -1.167401 -4.851869 -5.369079 -0.592700 0.000000 -50.881400
3.465360 17.345730 -1.328407 155.533565 -81.637513 -147.912805 -10.844943 -1.145354 0.959600 -1.640821 -5.248298 -37.674289 1.171292 2.491754 58.943058 3.786376 23.709566 25.406626 12.092400 -0.000001 -53.283400 8.835339 -0.748837 0.639692 8.479863 4.633483 -8.840888 2.047065 0.076600 9.563008 -1.180670 -4.778801 -5.753670 -0.532700 0.000000 -51.118499
3.513515 17.337599 -1.351162 153.478745 -81.564391 -146.061828 -10.770520 -1.454998 0.832866 -1.801682 -5.685152 -39.837687 1.251093 2.645540 62.176730 3.782912 23.217057 27.014647 12.243200 -0.000000 -51.953501 8.930787 -0.662082 0.437095 8.195015 4.485546 -9.114810 1.986173 -0.052969 10.583370 -1.206973 -4.773657 -6.163077 -0.476501 0.000000 -51.322601
3.560920 17.328782 -1.373311 151.333334 -81.510575 -144.100925 -10.682841 -1.769098 0.694998 -2.008141 -6.058591 -42.092276 1.343872 2.810218 65.358881 3.776222 22.740839 28.214541 12.269100 0.000000 -50.881200 9.033755 -0.574532 0.253531 7.894625 4.383095 -9.430785 1.918842 -0.183848 11.642806 -1.246788 -4.840233 -6.592853 -0.423600 -0.000000 -51.492200
3.607377 17.319460 -1.395115 149.083078 -81.478620 -142.015017 -10.580709 -2.087199 0.550832 -2.253769 -6.387934 -44.440393 1.457122 2.985502 68.490085 3.767473 22.308259 29.000388 12.197200 -0.000001 -50.025800 9.144952 -0.486184 0.089368 7.581220 4.323931 -9.788705 1.845286 -0.315663 12.738073 -1.299816 -4.978765 -7.036718 -0.373199 0.000000 -51.625400
3.652594 17.309773 -1.417045 146.681663 -81.468887 -139.757546 -10.459805 -2.410389 0.407410 -2.532737 -6.705565 -46.870175 1.592649 3.166097 71.546144 3.760927 21.963171 29.452833 12.087500 0.000000 -49.785100 9.268242 -0.396108 -0.059615 7.250200 4.288499 -10.188154 1.766203 -0.448814 13.868953 -1.362798 -5.172584 -7.491161 -0.323000 -0.000000 -51.724200
3.696615 17.299708 -1.439233 144.128532 -81.481376 -137.334264 -10.318751 -2.737136 0.268171 -2.832163 -7.025452 -49.376390 1.752800 3.350692 74.520432 3.754750 21.685537 29.582377 11.935300 -0.000000 -49.780200 9.404306 -0.303585 -0.196689 6.906277 4.265603 -10.617602 1.682843 -0.582430 15.023927 -1.433549 -5.413200 -7.946523 -0.272700 0.000000 -51.804700
3.739156 17.289243 -1.461941 141.406436 -81.512730 -134.729955 -10.153535 -3.066609 0.138742 -3.139312 -7.370652 -51.943571 1.934058 3.533830 77.381190 3.750335 21.476560 29.481629 11.769000 -0.000000 -50.156400 9.556177 -0.207080 -0.328238 6.547180 4.230952 -11.068773 1.596982 -0.716150 16.196893 -1.507344 -5.677082 -8.399164 -0.220500 0.000000 -51.872101
3.780230 17.278256 -1.485187 138.525968 -81.558241 -131.961014 -9.962099 -3.396506 0.022799 -3.437050 -7.753086 -54.559226 2.132062 3.711946 80.100473 3.746306 21.308940 29.217408 11.590000 0.000001 -50.705500 9.724263 -0.105041 -0.459864 6.176318 4.167811 -11.528064 1.510579 -0.848832 17.375769 -1.580490 -5.947180 -8.843663 -0.166200 -0.000000 -51.939300
3.819783 17.266576 -1.508934 135.507927 -81.611266 -129.052341 -9.742891 -3.723961 -0.076416 -3.707688 -8.180103 -57.211119 2.340363 3.881387 82.645912 3.741207 21.154086 28.865895 11.400300 0.000000 -51.279300 9.908150 0.004101 -0.597049 5.796447 4.060692 -11.982904 1.425665 -0.979254 18.550171 -1.649328 -6.205679 -9.278302 -0.109400 0.000000 -52.010700
3.857916 17.254039 -1.532977 132.392332 -81.664803 -126.048820 -9.496051 -4.046216 -0.156181 -3.930671 -8.653677 -59.888547 2.550805 4.038878 84.982192 3.733744 20.985786 28.508964 11.205200 0.000000 -51.836000 10.104556 0.121537 -0.743685 5.413414 3.904300 -12.420480 1.343894 -1.105802 19.706467 -1.711718 -6.442931 -9.699488 -0.050700 -0.000000 -52.096500
3.894585 17.240453 -1.557065 129.224585 -81.712116 -122.996890 -9.222786 -4.360262 -0.214528 -4.087913 -9.170257 -62.582508 2.754723 4.181590 87.075775 3.722822 20.782543 28.219478 11.010600 -0.000000 -52.384200 10.309247 0.247721 -0.902525 5.032072 3.696663 -12.831103 1.266724 -1.227078 20.835197 -1.766268 -6.651148 -10.109209 0.009700 0.000001 -52.191900
3.929735 17.225723 -1.580956 126.058046 -81.747201 -119.949493 -8.925896 -4.662890 -0.251559 -4.166104 -9.718563 -65.287670 2.945326 4.308165 88.902292 3.706070 20.515428 28.028843 10.807000 -0.000000 -52.695000 10.516889 0.382216 -1.074528 4.657894 3.443074 -13.206655 1.195139 -1.341860 21.927308 -1.812829 -6.828288 -10.509941 0.071700 0.000000 -52.285100
3.963515 17.209808 -1.604282 122.942515 -81.766694 -116.958418 -8.609153 -4.951972 -0.268103 -4.154118 -10.285191 -67.997301 3.115574 4.417172 90.438682 3.682559 20.171054 27.967229 10.593400 0.000000 -52.787700 10.721105 0.523896 -1.259400 4.296994 3.155392 -13.539792 1.129598 -1.449249 22.973873 -1.852638 -6.979143 -10.903603 0.134600 -0.000000 -52.364500
3.995854 17.192811 -1.626777 119.922877 -81.769619 -114.066993 -8.277130 -5.225542 -0.265311 -4.045654 -10.855667 -70.702913 3.259419 4.507433 91.667238 3.652326 19.746993 28.050697 10.371100 0.000000 -52.820600 10.915468 0.670480 -1.455326 3.955462 2.849011 -13.824142 1.070088 -1.548523 23.965649 -1.887850 -7.113143 -11.290502 0.198100 -0.000001 -52.419499
4.026773 17.174937 -1.648118 117.031356 -81.757431 -111.307281 -7.934825 -5.481787 -0.246374 -3.841814 -11.412762 -73.394745 3.373847 4.578746 92.581872 3.614903 19.240151 28.255873 10.129900 0.000000 -52.795000 11.094744 0.819364 -1.660139 3.638936 2.540111 -14.053711 1.016391 -1.639456 24.894866 -1.920907 -7.241066 -11.671222 0.261900 0.000000 -52.435499
4.056240 17.156487 -1.668194 114.284898 -81.732548 -108.696644 -7.586984 -5.718828 -0.215312 -3.551309 -11.940211 -76.060474 3.458012 4.631335 93.184678 3.570221 18.654748 28.539975 9.859400 0.000000 -52.709800 11.255561 0.967904 -1.871447 3.351228 2.242851 -14.222504 0.968032 -1.722064 25.753945 -1.954139 -7.373430 -12.045250 0.325999 -0.000000 -52.394600
4.084264 17.137850 -1.686820 111.688029 -81.699484 -106.241564 -7.238604 -5.935163 -0.176370 -3.186825 -12.424364 -78.684844 3.512998 4.665808 93.484487 3.518580 18.001835 28.848311 9.551700 -0.000000 -52.580100 11.395507 1.113417 -2.086977 3.096316 1.969684 -14.323885 0.924516 -1.796469 26.534523 -1.989687 -7.520420 -12.409774 0.390301 0.000000 -52.286300
